<svg width="33" height="36" viewBox="0 0 33 36" fill="none" xmlns="http://www.w3.org/2000/svg">
<path d="M13.5924 0.592555C14.7313 -0.172786 16.2132 -0.198704 17.3783 0.5262L24.2709 4.81487L24.2732 4.81628L24.2753 4.81768L30.5445 8.9972C31.5142 9.64371 32.0967 10.7321 32.0967 11.8976V18.3923L32.0961 18.3997L31.5294 24.7365C31.4342 25.8002 30.8567 26.7617 29.9623 27.3453L23.6929 31.4364L23.6901 31.4381L23.6872 31.4399L18.4887 34.54C17.3132 35.241 15.8362 35.1892 14.7126 34.4076L9.29212 30.6368C9.13621 30.5283 8.97076 30.4342 8.79791 30.3555L2.84895 27.647C1.73003 27.1376 0.962186 26.0763 0.828252 24.8542L0.000972635 17.3053L0 17.2964V12.1978C9.93159e-06 11.1213 0.497409 10.1052 1.34753 9.44483L7.29519 4.8247L7.29973 4.82125L7.30438 4.81811L13.5924 0.592555ZM17.2029 0.808048C16.1488 0.152195 14.808 0.175705 13.7776 0.868135L7.49469 5.09002L1.55114 9.707C0.781979 10.3045 0.332003 11.2239 0.331993 12.1978V17.2781L1.1583 24.8181C1.27949 25.9238 1.97419 26.8839 2.98653 27.3449L8.93548 30.0533C9.12652 30.1403 9.30935 30.2444 9.48167 30.3642L14.9022 34.135C15.9187 34.8422 17.255 34.889 18.3186 34.2548L23.5141 31.1565L29.7809 27.0672C30.5901 26.5392 31.1126 25.6693 31.1987 24.7069L31.7647 18.3773V11.8976C31.7647 10.8431 31.2377 9.85837 30.3604 9.27343L24.0939 5.09574L17.2029 0.808048ZM16.046 4.26122C23.2 4.26122 28.9996 10.0607 28.9996 17.2148L28.9986 17.3822C28.9089 24.4591 23.1442 30.1684 16.046 30.1684L15.8786 30.1673C8.80169 30.0777 3.09245 24.3129 3.09244 17.2148C3.09245 10.0607 8.89194 4.26124 16.046 4.26122ZM16.046 4.59322C9.0753 4.59323 3.42444 10.2441 3.42443 17.2148C3.42444 24.1855 9.0753 29.8364 16.046 29.8364C23.0167 29.8364 28.6676 24.1855 28.6676 17.2148C28.6676 10.2441 23.0167 4.59322 16.046 4.59322ZM16.2015 5.1862C22.7735 5.26945 28.0756 10.623 28.0756 17.2148L28.0746 17.3702C27.9913 23.9422 22.6379 29.2443 16.0461 29.2443L15.8906 29.2432C9.37025 29.1606 4.10009 23.8905 4.01752 17.3702L4.01655 17.2148C4.01657 10.5711 9.40238 5.18523 16.0461 5.18523L16.2015 5.1862ZM16.0461 5.51722C9.58574 5.51722 4.34856 10.7544 4.34854 17.2148C4.34856 23.6751 9.58574 28.9123 16.0461 28.9123C22.5064 28.9123 27.7436 23.6751 27.7436 17.2148C27.7436 10.7544 22.5064 5.51726 16.0461 5.51722ZM16.1898 6.09334C22.2662 6.17034 27.1684 11.1201 27.1684 17.2148L27.1674 17.3585C27.0904 23.4349 22.1407 28.337 16.0461 28.3371L15.9024 28.3361C9.87377 28.2597 5.00102 23.3871 4.92466 17.3585L4.9238 17.2148C4.92382 11.0721 9.90344 6.09248 16.0461 6.09248L16.1898 6.09334ZM16.0461 6.42447C10.0868 6.42447 5.25581 11.2555 5.25579 17.2148C5.2558 23.1741 10.0868 28.0051 16.0461 28.0051C22.0054 28.005 26.8364 23.1741 26.8364 17.2148C26.8364 11.2555 22.0054 6.42451 16.0461 6.42447ZM16.2822 7.64016C16.4721 7.64016 16.6427 7.71189 16.7763 7.84549L16.8244 7.89358L16.8498 7.9567L21.3888 19.2825C21.5037 19.5557 21.6116 19.8291 21.7126 20.1026C21.7982 20.2956 21.8802 20.4847 21.9581 20.6701L22.036 20.8574L22.0367 20.859L22.0372 20.8605C22.0558 20.907 22.1132 20.986 22.2743 21.0797C22.4537 21.1687 22.639 21.2388 22.8304 21.2899C23.0396 21.3457 23.1713 21.3651 23.242 21.3651C23.4045 21.3651 23.5075 21.4646 23.556 21.5373C23.6001 21.6034 23.6202 21.6741 23.6309 21.7224C23.6534 21.8238 23.6604 21.9506 23.6604 22.0862C23.6604 22.1741 23.6565 22.2565 23.6467 22.33C23.6375 22.3989 23.6205 22.4822 23.5822 22.5589L23.4854 22.7523L23.2694 22.742L20.5613 22.613L17.7673 22.742L17.6209 22.7487L17.5173 22.6451C17.4207 22.5486 17.3815 22.4244 17.3623 22.3329C17.3413 22.2333 17.3335 22.1198 17.3335 21.9997C17.3335 21.8909 17.3404 21.7776 17.3679 21.6815C17.3815 21.6341 17.4074 21.5639 17.4621 21.5C17.5253 21.4263 17.6254 21.3651 17.752 21.3651C17.8785 21.3651 18.0811 21.3319 18.374 21.2482C18.512 21.2087 18.6059 21.1704 18.6651 21.1373C18.6937 21.1213 18.7081 21.1096 18.7141 21.1043C18.7297 21.0691 18.7385 21.0302 18.7385 20.9838C18.7385 20.8869 18.7127 20.7281 18.6439 20.494C18.5747 20.2586 18.4767 19.9641 18.3491 19.6094L17.6387 17.7219C17.4366 17.7116 17.2008 17.7063 16.9306 17.7063H16.9228L16.9149 17.706C16.6188 17.6919 16.2784 17.6847 15.8932 17.6847C15.1555 17.6847 14.3778 17.7043 13.5601 17.7436L12.7855 19.6397C12.6452 19.9904 12.5421 20.2797 12.4743 20.5094C12.4181 20.7351 12.3995 20.8635 12.3995 20.919C12.3995 20.9693 12.4142 21.0182 12.4955 21.0788C12.5458 21.111 12.6374 21.1544 12.7856 21.2045C12.8058 21.2092 12.8392 21.2169 12.8392 21.2169L13.0499 21.2656C13.0523 21.2661 13.0519 21.266 13.0543 21.2666C13.0567 21.2671 13.0563 21.267 13.0587 21.2675C13.0611 21.2681 13.0607 21.268 13.0631 21.2686C13.0655 21.2692 13.0651 21.269 13.0675 21.2696C13.0699 21.2701 13.0694 21.2701 13.0719 21.2707C13.0743 21.2712 13.0739 21.2711 13.0763 21.2716C13.0787 21.2722 13.0782 21.2721 13.0806 21.2726C13.0831 21.2732 13.0826 21.2731 13.0851 21.2737C13.0875 21.2742 13.087 21.2741 13.0894 21.2747C13.0918 21.2752 13.0914 21.2751 13.0938 21.2756C13.0963 21.2762 13.0958 21.2761 13.0983 21.2767C13.1006 21.2773 13.1002 21.2771 13.1026 21.2777C13.105 21.2782 13.1046 21.2782 13.107 21.2788C13.1094 21.2793 13.109 21.2792 13.1114 21.2797C13.1138 21.2803 13.1134 21.2802 13.1158 21.2807C13.1182 21.2813 13.1178 21.2812 13.1202 21.2818C13.1226 21.2823 13.1221 21.2822 13.1245 21.2828C13.1269 21.2833 13.1265 21.2832 13.1289 21.2837C13.1314 21.2843 13.1309 21.2843 13.1334 21.2848C13.1358 21.2854 13.1353 21.2852 13.1377 21.2858C13.1401 21.2864 13.1397 21.2863 13.1421 21.2869C13.1445 21.2874 13.1441 21.2873 13.1466 21.2878C13.1489 21.2884 13.1485 21.2883 13.1509 21.2888C13.1533 21.2894 13.1529 21.2893 13.1553 21.2899C13.1577 21.2904 13.1573 21.2903 13.1596 21.2909C13.1621 21.2914 13.1616 21.2913 13.1641 21.2918C13.1665 21.2924 13.1661 21.2924 13.1685 21.2929C13.1709 21.2935 13.1704 21.2933 13.1728 21.2939C13.1753 21.2945 13.1748 21.2944 13.1773 21.295C13.1797 21.2955 13.1793 21.2954 13.1817 21.2959C13.1841 21.2965 13.1836 21.2964 13.186 21.2969C13.1884 21.2975 13.188 21.2974 13.1904 21.298C13.1928 21.2986 13.1924 21.2984 13.1948 21.299C13.1972 21.2995 13.1968 21.2994 13.1992 21.2999C13.2016 21.3005 13.2012 21.3005 13.2036 21.301C13.206 21.3016 13.2056 21.3014 13.2079 21.302C13.2104 21.3026 13.2099 21.3025 13.2124 21.3031C13.2148 21.3036 13.2144 21.3035 13.2168 21.3041C13.2192 21.3046 13.2187 21.3045 13.2211 21.305C13.2236 21.3056 13.2231 21.3055 13.2256 21.3061C13.228 21.3067 13.2275 21.3065 13.2299 21.3071C13.2323 21.3076 13.2319 21.3075 13.2343 21.308C13.2368 21.3086 13.2363 21.3086 13.2387 21.3091C13.2411 21.3097 13.2407 21.3096 13.2431 21.3101C13.2455 21.3107 13.2451 21.3106 13.2475 21.3112C13.2499 21.3117 13.2495 21.3116 13.2519 21.3122C13.2543 21.3127 13.2539 21.3126 13.2563 21.3131C13.2587 21.3137 13.2582 21.3136 13.2607 21.3142C13.2631 21.3148 13.2626 21.3146 13.265 21.3152C13.2674 21.3157 13.267 21.3156 13.2694 21.3162C13.2719 21.3167 13.2714 21.3167 13.2739 21.3172C13.2762 21.3178 13.2758 21.3177 13.2782 21.3182C13.2806 21.3188 13.2802 21.3187 13.2826 21.3193C13.285 21.3198 13.2846 21.3197 13.2871 21.3203C13.2894 21.3208 13.289 21.3207 13.2914 21.3212C13.2938 21.3218 13.2934 21.3218 13.2958 21.3223C13.2982 21.3229 13.2977 21.3227 13.3001 21.3233C13.3026 21.3239 13.3021 21.3237 13.3046 21.3243C13.307 21.3248 13.3066 21.3248 13.309 21.3253C13.3114 21.3259 13.3109 21.3258 13.3133 21.3263L13.3175 21.3273C13.4999 21.3551 13.6028 21.3651 13.6453 21.3651H13.6992L13.7502 21.3822C13.8682 21.4215 13.9325 21.5071 13.963 21.5614C13.994 21.6164 14.0096 21.6722 14.0186 21.714C14.0367 21.7987 14.0421 21.8983 14.0421 21.9997C14.0421 22.1025 14.0355 22.2007 14.02 22.2915C14.0176 22.3656 14.0065 22.4414 13.9818 22.5153L13.9019 22.7555L13.649 22.7419C13.1141 22.713 12.6712 22.6839 12.3209 22.6547L12.3197 22.6546C11.9964 22.6265 11.6963 22.6127 11.4191 22.6127C11.136 22.6127 10.7944 22.6198 10.3935 22.6341C9.99787 22.6482 9.46363 22.6837 8.78872 22.7412L8.63494 22.7542L8.52579 22.6451C8.3684 22.4877 8.34207 22.2595 8.34207 22.0862C8.34207 21.9537 8.34563 21.8415 8.35493 21.7577C8.35923 21.719 8.36674 21.6667 8.38346 21.6165C8.39125 21.5931 8.40851 21.5463 8.44506 21.4993C8.483 21.4506 8.57282 21.3651 8.71729 21.3651C8.78797 21.3651 8.91967 21.3457 9.12882 21.2899L9.13142 21.2892L9.1339 21.2886C9.34669 21.2354 9.54413 21.1694 9.72688 21.0914C9.81994 21.0477 9.88614 21.0088 9.93071 20.9759C9.97771 20.9413 9.9875 20.9233 9.98528 20.9272L9.9909 20.9173L9.99728 20.9078C10.1306 20.7077 10.2593 20.478 10.3828 20.2176C10.5106 19.9336 10.6458 19.6205 10.7884 19.2783L14.8061 9.55808C14.9809 9.11377 15.1387 8.75295 15.2791 8.47965C15.4089 8.2271 15.5442 8.00788 15.6892 7.87996C15.8516 7.72197 16.0553 7.64016 16.2822 7.64016ZM16.2822 7.97215C16.1381 7.97215 16.0157 8.02258 15.9148 8.12345C15.7275 8.28195 15.4609 8.80069 15.1151 9.67966L11.0948 19.406C10.9507 19.7518 10.8139 20.0688 10.6842 20.357C10.5545 20.6308 10.4176 20.8758 10.2735 21.0919C10.2159 21.1928 10.079 21.2936 9.86284 21.3945C9.66111 21.481 9.44497 21.553 9.21442 21.6106C8.99827 21.6683 8.83257 21.6971 8.71729 21.6971C8.68847 21.6971 8.67406 21.8268 8.67406 22.0862C8.67406 22.2447 8.70288 22.3527 8.76052 22.4104C9.43776 22.3527 9.97811 22.3167 10.3816 22.3023C10.785 22.2879 11.1309 22.2807 11.4191 22.2807C11.7072 22.2807 12.017 22.2951 12.3485 22.3239C12.6943 22.3527 13.1338 22.3815 13.6669 22.4104C13.6813 22.3671 13.6885 22.3167 13.6885 22.2591C13.7029 22.187 13.7101 22.1006 13.7101 21.9997C13.7101 21.8124 13.6885 21.7115 13.6453 21.6971C13.5733 21.6971 13.4436 21.6827 13.2563 21.6539L12.6943 21.5242C12.5214 21.4666 12.3917 21.4089 12.3052 21.3513C12.1467 21.236 12.0675 21.0919 12.0675 20.919C12.0675 20.8181 12.0963 20.6524 12.1539 20.4219C12.226 20.1769 12.3341 19.8743 12.4781 19.5141L13.2995 17.504C13.2995 17.4463 13.3427 17.4175 13.4292 17.4175C14.2937 17.3743 15.1151 17.3527 15.8932 17.3527C16.2822 17.3527 16.6281 17.3599 16.9306 17.3743C17.2477 17.3743 17.5214 17.3815 17.752 17.3959C17.7952 17.3959 17.8456 17.4247 17.9033 17.4824L18.6598 19.4925C18.7895 19.8527 18.8903 20.1553 18.9624 20.4003C19.0344 20.6452 19.0704 20.8397 19.0704 20.9838C19.0704 21.0847 19.0488 21.1784 19.0056 21.2648C18.948 21.3801 18.7678 21.481 18.4653 21.5674C18.1627 21.6539 17.9249 21.6971 17.752 21.6971C17.6943 21.6971 17.6655 21.798 17.6655 21.9997C17.6655 22.2158 17.6943 22.3527 17.752 22.4104L20.5618 22.2807L23.2852 22.4104C23.314 22.3527 23.3284 22.2447 23.3284 22.0862C23.3284 21.8268 23.2996 21.6971 23.242 21.6971C23.1267 21.6971 22.961 21.6683 22.7448 21.6106C22.5287 21.553 22.3198 21.4738 22.118 21.3729C21.9163 21.2576 21.7866 21.1279 21.729 20.9838C21.6281 20.7389 21.52 20.4867 21.4048 20.2273C21.3039 19.9536 21.1958 19.6798 21.0806 19.406L16.5416 8.08022C16.4695 8.00817 16.3831 7.97215 16.2822 7.97215ZM17.3197 16.0342L17.2765 16.1207C16.6136 16.1639 16.0229 16.1855 15.5041 16.1855C14.971 16.1855 14.4522 16.1639 13.9479 16.1207C13.9191 16.1207 13.9047 16.0918 13.9047 16.0342L15.677 11.7114L17.3197 16.0342ZM14.3521 15.8179C14.7278 15.8416 15.1118 15.8535 15.5041 15.8535C15.9149 15.8535 16.3734 15.8395 16.88 15.8117L15.6653 12.6152L14.3521 15.8179Z" fill="#FDC63C"/>
<path fill-rule="evenodd" clip-rule="evenodd" d="M16.2822 7.97215C16.1381 7.97215 16.0157 8.02258 15.9148 8.12345C15.7275 8.28195 15.4609 8.80069 15.1151 9.67966L11.0948 19.406C10.9507 19.7518 10.8139 20.0688 10.6842 20.357C10.5545 20.6308 10.4176 20.8758 10.2735 21.0919C10.2159 21.1928 10.079 21.2936 9.86284 21.3945C9.66111 21.481 9.44497 21.553 9.21442 21.6106C8.99827 21.6683 8.83257 21.6971 8.71729 21.6971C8.68847 21.6971 8.67406 21.8268 8.67406 22.0862C8.67406 22.2447 8.70288 22.3527 8.76052 22.4104C9.43776 22.3527 9.97811 22.3167 10.3816 22.3023C10.785 22.2879 11.1309 22.2807 11.4191 22.2807C11.7072 22.2807 12.017 22.2951 12.3485 22.3239C12.6943 22.3527 13.1338 22.3815 13.6669 22.4104C13.6813 22.3671 13.6885 22.3167 13.6885 22.2591C13.7029 22.187 13.7101 22.1006 13.7101 21.9997C13.7101 21.8124 13.6885 21.7115 13.6453 21.6971C13.5733 21.6971 13.4436 21.6827 13.2563 21.6539L12.6943 21.5242C12.5214 21.4666 12.3917 21.4089 12.3052 21.3513C12.1467 21.236 12.0675 21.0919 12.0675 20.919C12.0675 20.8181 12.0963 20.6524 12.1539 20.4219C12.226 20.1769 12.3341 19.8743 12.4781 19.5141L13.2995 17.504C13.2995 17.4463 13.3427 17.4175 13.4292 17.4175C14.2937 17.3743 15.1151 17.3527 15.8932 17.3527C16.2822 17.3527 16.6281 17.3599 16.9306 17.3743C17.2477 17.3743 17.5214 17.3815 17.752 17.3959C17.7952 17.3959 17.8456 17.4247 17.9033 17.4824L18.6598 19.4925C18.7895 19.8527 18.8903 20.1553 18.9624 20.4003C19.0344 20.6452 19.0704 20.8397 19.0704 20.9838C19.0704 21.0847 19.0488 21.1784 19.0056 21.2648C18.948 21.3801 18.7678 21.481 18.4653 21.5674C18.1627 21.6539 17.9249 21.6971 17.752 21.6971C17.6943 21.6971 17.6655 21.798 17.6655 21.9997C17.6655 22.2158 17.6943 22.3527 17.752 22.4104L20.5618 22.2807L23.2852 22.4104C23.314 22.3527 23.3284 22.2447 23.3284 22.0862C23.3284 21.8268 23.2996 21.6971 23.242 21.6971C23.1267 21.6971 22.961 21.6683 22.7448 21.6106C22.5287 21.553 22.3198 21.4738 22.118 21.3729C21.9163 21.2576 21.7866 21.1279 21.729 20.9838C21.6281 20.7389 21.52 20.4867 21.4048 20.2273C21.3039 19.9536 21.1958 19.6798 21.0806 19.406L16.5416 8.08022C16.4695 8.00817 16.3831 7.97215 16.2822 7.97215ZM17.2765 16.1207L17.3197 16.0342L15.677 11.7114L13.9047 16.0342C13.9047 16.0918 13.9191 16.1207 13.9479 16.1207C14.4522 16.1639 14.971 16.1855 15.5041 16.1855C16.0229 16.1855 16.6136 16.1639 17.2765 16.1207Z" fill="#FDC63C"/>
<path fill-rule="evenodd" clip-rule="evenodd" d="M17.2029 0.808048C16.1488 0.152195 14.808 0.175705 13.7776 0.868135L7.49469 5.09002L1.55114 9.707C0.781979 10.3045 0.332003 11.2239 0.331993 12.1978V17.2781L1.1583 24.8181C1.27949 25.9238 1.97419 26.8839 2.98653 27.3449L8.93548 30.0533C9.12652 30.1403 9.30935 30.2444 9.48167 30.3642L14.9022 34.135C15.9187 34.8422 17.255 34.889 18.3186 34.2548L23.5141 31.1565L29.7809 27.0672C30.5901 26.5392 31.1126 25.6693 31.1987 24.7069L31.7647 18.3773V11.8976C31.7647 10.8431 31.2377 9.85837 30.3604 9.27343L24.0939 5.09574L17.2029 0.808048ZM28.9996 17.2148C28.9996 10.0607 23.2 4.26122 16.046 4.26122C8.89194 4.26124 3.09245 10.0607 3.09244 17.2148C3.09245 24.3129 8.80169 30.0777 15.8786 30.1673L16.046 30.1684C23.1442 30.1684 28.9089 24.4591 28.9986 17.3822L28.9996 17.2148Z" fill="#FDC63C"/>
</svg>
