<svg width="210" height="210" viewBox="0 0 210 210" fill="none" xmlns="http://www.w3.org/2000/svg">
<circle cx="105" cy="100.8" r="59.85" fill="#D53F3F" fill-opacity="0.83"/>
<path d="M156.45 137.55C148.409 150.556 131.434 162.479 105.525 164.647C84.083 166.815 66.2146 157.06 54.6001 137.55C60.854 152.724 79.6159 171.15 106.419 171.15C140.369 171.15 155.557 152.724 156.45 137.55Z" fill="#B8413B"/>
<path d="M105 151.2C132.835 151.2 155.4 128.635 155.4 100.8C155.4 72.9649 132.835 50.4 105 50.4C77.1649 50.4 54.6001 72.9649 54.6001 100.8C54.6001 128.635 77.1649 151.2 105 151.2Z" stroke="#B8413B" stroke-width="6"/>
<path d="M105 140.7C127.036 140.7 144.9 122.836 144.9 100.8C144.9 78.7639 127.036 60.9 105 60.9C82.9639 60.9 65.1001 78.7639 65.1001 100.8C65.1001 122.836 82.9639 140.7 105 140.7Z" stroke="#B8413B" stroke-width="4"/>
<path d="M89.25 91.85C91.8734 91.85 94 93.9766 94 96.6C94 99.2233 91.8734 101.35 89.25 101.35C86.6266 101.35 84.5 99.2233 84.5 96.6C84.5 93.9766 86.6266 91.85 89.25 91.85Z" fill="#94332E" stroke="#94332E"/>
<path d="M120.75 91.85C123.373 91.85 125.5 93.9766 125.5 96.6C125.5 99.2233 123.373 101.35 120.75 101.35C118.127 101.35 116 99.2233 116 96.6C116 93.9766 118.127 91.85 120.75 91.85Z" fill="#94332E" stroke="#94332E"/>
<path d="M86.1001 110.25C92.4001 124.25 117.6 124.25 123.9 110.25" stroke="#94332E" stroke-width="4" stroke-linecap="round"/>
<path d="M94.5001 37.7702C110.85 32.9361 132.574 35.3395 152.532 52.018C169.356 65.5175 173.857 86.1504 165.938 110.25C174.046 93.4839 176.06 65.1777 157.26 46.1041C133.448 21.9442 107.622 26.0904 94.5001 37.7702Z" fill="#B8413B"/>
<path d="M44.7087 118.244C37.9884 106.761 34.8608 92.9374 43.7329 71.8176C50.7882 54.1899 66.4213 39.91 86.1306 38.6274C71.9316 37.4522 50.148 44.755 39.2475 65.7069C25.4402 92.2459 33.4165 111.482 44.7087 118.244Z" fill="#CA433E"/>
</svg>
