<svg width="30" height="30" viewBox="0 0 30 30" fill="none" xmlns="http://www.w3.org/2000/svg">
<rect x="-0.000244141" width="30" height="30" rx="15" fill="#F0F2E8"/>
<path fill-rule="evenodd" clip-rule="evenodd" d="M17.1717 5.76544C16.2068 4.09267 13.7925 4.09267 12.8276 5.76544C12.2602 6.74914 11.1025 7.22868 10.0057 6.93433C8.14055 6.4338 6.43343 8.14091 6.93397 10.006C7.22831 11.1029 6.74878 12.2606 5.76508 12.828C4.0923 13.7929 4.0923 16.2071 5.76508 17.172C6.74878 17.7395 7.22831 18.8972 6.93397 19.994C6.43343 21.8591 8.14055 23.5662 10.0057 23.0657C11.1025 22.7713 12.2602 23.2509 12.8276 24.2346C13.7925 25.9074 16.2068 25.9074 17.1717 24.2346C17.7391 23.2509 18.8968 22.7713 19.9936 23.0657C21.8587 23.5662 23.5659 21.8591 23.0653 19.994C22.771 18.8972 23.2505 17.7395 24.2342 17.172C25.907 16.2071 25.907 13.7929 24.2342 12.828C23.2505 12.2606 22.771 11.1029 23.0653 10.006C23.5659 8.14092 21.8587 6.4338 19.9936 6.93433C18.8968 7.22868 17.7391 6.74914 17.1717 5.76544ZM15.6886 17.9756L20.7237 12.6897L19.2756 11.3103L14.2405 16.5961C14.002 16.8465 13.8401 16.9181 13.5709 16.9743C13.3242 17.0258 13.0679 16.9999 12.8322 16.8974C12.5958 16.7946 12.3859 16.617 12.2347 16.3794C12.0832 16.1414 11.9996 15.8567 11.9996 15.5618H9.99965C9.99965 16.2313 10.1885 16.8894 10.5475 17.4533C10.9067 18.0177 11.4222 18.4651 12.0346 18.7315C12.6477 18.9981 13.3254 19.0687 13.9797 18.932C14.6117 18.8001 15.1472 18.544 15.6886 17.9756Z" fill="#9BB167"/>
</svg>
