<svg width="418" height="813" viewBox="0 0 418 813" fill="none" xmlns="http://www.w3.org/2000/svg">
<g clip-path="url(#clip0_209_4253)">
<path d="M406 747.353H12.9999V813H406V747.353Z" fill="white"/>
<path d="M305 36C305.552 36 306 35.5523 306 35C306 34.4477 305.552 34 305 34C304.448 34 304 34.4477 304 35C304 35.5523 304.448 36 305 36Z" fill="#D9D9D9"/>
<g filter="url(#filter0_d_209_4253)">
<path d="M289.183 116.567C289.062 111.046 293.441 106.472 298.962 106.352L347.781 105.288C353.302 105.167 357.876 109.546 357.996 115.068L358.191 124.004L289.377 125.504L289.183 116.567Z" fill="#FBC846"/>
</g>
<g filter="url(#filter1_d_209_4253)">
<path fill-rule="evenodd" clip-rule="evenodd" d="M304.618 101.752C305.086 101.742 305.467 101.681 305.771 101.57C305.466 101.681 305.089 101.742 304.618 101.752ZM336.342 101.069C336.977 101.056 337.664 100.889 338.241 100.667C339.946 100.01 337.805 99.9923 336.342 101.069Z" fill="#F4624B"/>
<path d="M304.618 101.752C305.086 101.742 305.467 101.681 305.771 101.57C307.91 100.792 306.183 97.5583 303.282 92.1229C297.373 81.0546 282.762 62.8336 289.821 35.6593C300.51 -5.49093 375.376 24.4509 345.82 58.0007C343.984 60.0849 341.156 60.9847 338.339 60.9741C320.178 60.9057 334.682 70.1382 336.342 101.069L304.618 101.752Z" fill="#F4624B"/>
</g>
<path d="M319.374 32.687L319.45 36.1554" stroke="black" stroke-width="6" stroke-linecap="round"/>
<path d="M332.327 32.4045L332.403 35.8729" stroke="black" stroke-width="6" stroke-linecap="round"/>
<path d="M331.21 96.3138C338.617 96.1524 344.753 102.026 344.914 109.433L301.197 110.386C301.036 102.979 306.91 96.8434 314.317 96.6819L331.21 96.3138Z" fill="#FBC846"/>
<path d="M331.21 96.3138C338.617 96.1524 344.753 102.026 344.914 109.433L301.197 110.386C301.036 102.979 306.91 96.8434 314.317 96.6819L331.21 96.3138Z" stroke="black"/>
<path d="M308.878 42.5396L307.277 44.9931" stroke="white" stroke-opacity="0.4" stroke-width="2" stroke-linecap="round"/>
<path d="M306.859 21.5042C295.498 25.5076 294.835 35.0508 294.835 35.0508" stroke="white" stroke-opacity="0.4" stroke-width="2" stroke-linecap="round"/>
<path d="M311.661 42.4788L310.06 44.9323" stroke="white" stroke-opacity="0.4" stroke-width="2" stroke-linecap="round"/>
<path d="M314.444 42.4182L312.843 44.8717" stroke="white" stroke-opacity="0.4" stroke-width="2" stroke-linecap="round"/>
<path d="M302.987 105.708L341.959 104.859" stroke="#FF9B37" stroke-width="3" stroke-linecap="round"/>
<path d="M289.637 123.902L356.966 122.434" stroke="#FF9B37" stroke-width="3"/>
<path d="M330.689 61.0219C319.476 64.3058 316.364 59.3204 316.846 58.9507" stroke="#BE3A3A" stroke-opacity="0.77" stroke-width="2" stroke-linecap="round"/>
<path d="M377 231H44.9996C33.9539 231 24.9996 239.954 24.9996 251V643C24.9996 654.046 33.9539 663 44.9996 663H377C388.045 663 397 654.046 397 643V251C397 239.954 388.045 231 377 231Z" fill="white" fill-opacity="0.8"/>
<g filter="url(#filter2_d_209_4253)">
<path d="M382.181 383.308C382.491 387.777 382.646 390.012 381.895 391.78C381.234 393.334 380.098 394.64 378.649 395.509C377.002 396.497 374.767 396.653 370.298 396.963L289.681 402.554C285.212 402.864 282.977 403.019 281.209 402.268C279.654 401.607 278.349 400.47 277.48 399.022C276.491 397.375 276.336 395.14 276.026 390.67L270.508 311.114C270.253 307.437 270.126 305.598 270.674 304.039C271.158 302.663 272.009 301.446 273.134 300.519C274.41 299.468 276.181 298.956 279.721 297.932L319.428 286.448C320.417 286.162 320.912 286.019 321.416 285.941C321.864 285.871 322.317 285.84 322.77 285.847C323.28 285.855 323.79 285.928 324.809 286.075L365.719 291.967C369.367 292.493 371.191 292.755 372.6 293.62C373.842 294.383 374.853 295.471 375.522 296.767C376.281 298.235 376.408 300.074 376.663 303.751L382.181 383.308Z" fill="#F7C1B3"/>
</g>
<g filter="url(#filter3_d_209_4253)">
<path d="M269 389.299C269 393.78 269 396.02 268.128 397.731C267.361 399.237 266.137 400.46 264.632 401.227C262.92 402.099 260.68 402.099 256.2 402.099H170.8C166.319 402.099 164.079 402.099 162.368 401.227C160.863 400.46 159.639 399.237 158.872 397.731C158 396.02 158 393.78 158 389.299V305.114C158 301.428 158 299.585 158.655 298.068C159.233 296.729 160.166 295.574 161.352 294.727C162.698 293.766 164.5 293.378 168.103 292.601L210.804 283.397C211.81 283.18 212.314 283.072 212.822 283.029C213.274 282.99 213.728 282.99 214.179 283.029C214.688 283.072 215.191 283.181 216.198 283.398L258.897 292.601C262.5 293.378 264.301 293.766 265.647 294.727C266.834 295.574 267.767 296.729 268.345 298.068C269 299.585 269 301.428 269 305.114V389.299Z" fill="#F7C1B3"/>
</g>
<g filter="url(#filter4_d_209_4253)">
<path d="M149.249 389.862C148.637 394.3 148.33 396.52 147.232 398.095C146.267 399.482 144.887 400.527 143.291 401.081C141.477 401.71 139.257 401.404 134.819 400.791L55.6795 389.866C51.2411 389.253 49.022 388.947 47.446 387.849C46.0597 386.883 45.0148 385.504 44.4608 383.908C43.8311 382.093 44.1375 379.874 44.7502 375.436L55.5346 297.318C56.0387 293.666 56.2907 291.841 57.1474 290.427C57.9029 289.18 58.9849 288.163 60.2764 287.486C61.7408 286.719 63.5785 286.581 67.254 286.304L108.002 283.238C109.029 283.161 109.543 283.123 110.052 283.149C110.505 283.173 110.954 283.235 111.396 283.335C111.894 283.447 112.378 283.623 113.345 283.976L151.737 297.967C155.2 299.229 156.931 299.86 158.133 300.996C159.193 301.997 159.959 303.269 160.348 304.674C160.79 306.267 160.538 308.093 160.034 311.744L149.249 389.862Z" fill="#F7C1B3"/>
</g>
<path d="M70.7535 264V251.027H66.0543V247.09H80.4215V251.027H75.7223V264H70.7535ZM87.1481 264.328C82.8004 264.328 80.2457 261.773 80.2457 257.414V257.391C80.2457 253.137 82.8824 250.5 87.1481 250.5C91.4371 250.5 94.0504 253.113 94.0504 257.391V257.414C94.0504 261.785 91.5074 264.328 87.1481 264.328ZM87.1481 260.766C88.402 260.766 89.1285 259.523 89.1285 257.426V257.402C89.1285 255.352 88.3785 254.062 87.1481 254.062C85.9176 254.062 85.1676 255.352 85.1676 257.402V257.426C85.1676 259.535 85.8942 260.766 87.1481 260.766ZM97.0387 259.289V255.023H104.75V259.289H97.0387ZM112.918 264.188C109.672 264.188 107.738 261.727 107.738 257.426V257.402C107.738 253.066 109.589 250.641 112.918 250.641C114.722 250.641 116.093 251.496 116.703 252.961H116.937V245.977H121.742V264H116.937V262.02H116.703C116.14 263.391 114.804 264.188 112.918 264.188ZM114.781 260.32C116.105 260.32 116.961 259.254 116.961 257.438V257.414C116.961 255.598 116.082 254.508 114.781 254.508C113.48 254.508 112.613 255.621 112.613 257.402V257.426C112.613 259.23 113.468 260.32 114.781 260.32ZM131.164 264.328C126.816 264.328 124.261 261.773 124.261 257.414V257.391C124.261 253.137 126.898 250.5 131.164 250.5C135.453 250.5 138.066 253.113 138.066 257.391V257.414C138.066 261.785 135.523 264.328 131.164 264.328ZM131.164 260.766C132.418 260.766 133.144 259.523 133.144 257.426V257.402C133.144 255.352 132.394 254.062 131.164 254.062C129.933 254.062 129.183 255.352 129.183 257.402V257.426C129.183 259.535 129.91 260.766 131.164 260.766Z" fill="black"/>
<path d="M94.2882 306.387C96.3665 306.387 98.0512 304.702 98.0512 302.624C98.0512 300.546 96.3665 298.861 94.2882 298.861C92.2099 298.861 90.5252 300.546 90.5252 302.624C90.5252 304.702 92.2099 306.387 94.2882 306.387Z" fill="#D9D9D9"/>
<path d="M202.525 302.211C204.603 302.211 206.288 300.526 206.288 298.448C206.288 296.37 204.603 294.685 202.525 294.685C200.447 294.685 198.762 296.37 198.762 298.448C198.762 300.526 200.447 302.211 202.525 302.211Z" fill="#D9D9D9"/>
<path d="M324.763 305.526C326.841 305.526 328.526 303.841 328.526 301.763C328.526 299.685 326.841 298 324.763 298C322.685 298 321 299.685 321 301.763C321 303.841 322.685 305.526 324.763 305.526Z" fill="#D9D9D9"/>
<path d="M321.197 301.032C321.717 300.845 322.29 301.114 322.478 301.634C322.664 302.153 322.395 302.726 321.876 302.913C301.462 310.272 287.213 309.746 264.625 309.746V307.746C287.268 307.746 301.164 308.254 321.197 301.032ZM0.0547476 292.794C0.235286 292.272 0.80542 291.996 1.32721 292.176C35.7282 304.07 60.5352 307.212 96.7901 301.352C97.3353 301.263 97.8494 301.634 97.9376 302.18C98.0254 302.725 97.6545 303.238 97.1094 303.326C60.4868 309.246 35.3442 306.054 0.672912 294.066C0.151454 293.886 -0.125394 293.316 0.0547476 292.794ZM403.423 286.398C403.853 286.052 404.483 286.12 404.829 286.55C405.175 286.98 405.107 287.609 404.678 287.955C400.24 291.531 396.791 294.544 392.482 296.859C388.137 299.193 382.952 300.807 374.982 301.741C374.433 301.805 373.937 301.413 373.872 300.864C373.808 300.316 374.201 299.819 374.749 299.755C382.544 298.842 387.47 297.281 391.535 295.097C395.636 292.894 398.897 290.045 403.423 286.398ZM156.315 292.287C173.568 292.385 193.427 294.372 205.42 297.991C205.948 298.151 206.247 298.71 206.088 299.238C205.928 299.767 205.37 300.066 204.842 299.906C193.118 296.368 173.481 294.385 156.304 294.287C147.724 294.238 139.808 294.661 133.842 295.581C130.855 296.042 128.398 296.622 126.605 297.31C125.708 297.653 125.009 298.013 124.5 298.376C123.988 298.742 123.721 299.074 123.602 299.348L122.685 298.949L121.768 298.55C122.08 297.831 122.65 297.239 123.338 296.748C124.03 296.254 124.896 295.822 125.888 295.441C127.871 294.68 130.485 294.075 133.536 293.604C139.647 292.662 147.681 292.238 156.315 292.287Z" fill="url(#paint0_linear_209_4253)"/>
<path d="M78.4957 464.469C74.1129 464.469 71.3942 462.559 71.2301 459.301L71.2184 459.066H75.941L75.9528 459.16C76.0582 460.004 77.0426 460.66 78.5543 460.66C80.0426 460.66 80.9567 460.027 80.9567 459.148V459.137C80.9567 458.328 80.277 458.047 78.402 457.695L76.7028 457.379C73.0699 456.699 71.4996 454.977 71.4996 452.281V452.27C71.4996 448.801 74.4293 446.621 78.4371 446.621C82.9606 446.621 85.2457 448.801 85.527 451.941L85.5387 452.07H80.9801L80.9567 451.941C80.7926 451.016 79.8551 450.43 78.4957 450.43C77.1246 450.43 76.4215 451.027 76.4215 451.801V451.812C76.4215 452.656 77.1481 453.055 78.8356 453.371L80.5348 453.688C84.1676 454.367 85.8785 455.82 85.8785 458.645V458.656C85.8785 462.207 83.1598 464.469 78.4957 464.469ZM94.8551 464C91.1754 464 89.7223 462.934 89.7223 460.332V454.297H87.7418V450.828H89.7223V447.934H94.527V450.828H97.0934V454.297H94.527V459.266C94.527 460.098 95.0074 460.531 96.0153 460.531C96.5309 460.531 96.8121 460.508 97.0934 460.473V463.824C96.6364 463.918 95.7692 464 94.8551 464ZM103.281 464.188C100.761 464.188 99.0856 462.594 99.0856 460.191V460.168C99.0856 457.777 100.996 456.371 104.488 456.16L107.089 456.008V455.035C107.089 454.355 106.527 453.934 105.601 453.934C104.652 453.934 104.078 454.238 103.855 454.789L103.832 454.848H99.5426L99.5543 454.695C99.7535 452.152 102.109 450.5 105.894 450.5C109.656 450.5 111.8 452.152 111.8 455.035V464H107.089V462.453H106.855C106.351 463.496 104.945 464.188 103.281 464.188ZM103.668 459.828C103.668 460.508 104.242 460.953 105.156 460.953C106.234 460.953 107.089 460.238 107.089 459.324V458.562L105.261 458.68C104.254 458.75 103.668 459.172 103.668 459.805V459.828ZM114.789 464V450.828H119.593V452.949H119.828C120.355 451.391 121.832 450.5 123.566 450.5C125.359 450.5 126.765 451.367 127.234 453.043H127.468C127.972 451.508 129.519 450.5 131.382 450.5C133.949 450.5 135.718 452.34 135.718 455.023V464H130.914V456.266C130.914 455 130.363 454.367 129.273 454.367C128.265 454.367 127.656 455.082 127.656 456.266V464H122.851V456.266C122.851 455.012 122.3 454.367 121.222 454.367C120.214 454.367 119.593 455.094 119.593 456.266V464H114.789ZM138.648 468.336V450.828H143.453V452.809H143.687C144.25 451.438 145.586 450.641 147.472 450.641C150.718 450.641 152.652 453.102 152.652 457.402V457.426C152.652 461.762 150.8 464.188 147.472 464.188C145.668 464.188 144.297 463.332 143.687 461.867H143.453V468.336H138.648ZM145.609 460.32C146.91 460.32 147.777 459.207 147.777 457.426V457.402C147.777 455.598 146.922 454.508 145.609 454.508C144.285 454.508 143.429 455.574 143.429 457.391V457.414C143.429 459.23 144.308 460.32 145.609 460.32ZM161.242 464.328C157 464.328 154.41 461.727 154.41 457.414V457.402C154.41 453.09 157 450.5 161.089 450.5C165.168 450.5 167.781 453.09 167.781 457.133V458.457H159.109C159.132 460.074 159.953 461.023 161.336 461.023C162.625 461.023 163.222 460.238 163.363 460.027L163.386 459.992L167.722 459.98L167.687 460.133C167.336 461.645 165.8 464.328 161.242 464.328ZM161.218 453.805C160.117 453.805 159.343 454.531 159.156 455.797H163.281C163.093 454.531 162.32 453.805 161.218 453.805ZM174.73 464.188C171.484 464.188 169.55 461.727 169.55 457.426V457.402C169.55 453.066 171.402 450.641 174.73 450.641C176.535 450.641 177.906 451.496 178.515 452.961H178.75V445.977H183.554V464H178.75V462.02H178.515C177.953 463.391 176.617 464.188 174.73 464.188ZM176.593 460.32C177.918 460.32 178.773 459.254 178.773 457.438V457.414C178.773 455.598 177.894 454.508 176.593 454.508C175.293 454.508 174.425 455.621 174.425 457.402V457.426C174.425 459.23 175.281 460.32 176.593 460.32ZM187.855 458.48L187.433 447.09H192.589L192.168 458.48H187.855ZM190.011 464.469C188.324 464.469 187.375 463.648 187.375 462.184C187.375 460.707 188.324 459.887 190.011 459.887C191.699 459.887 192.648 460.707 192.648 462.184C192.648 463.648 191.699 464.469 190.011 464.469Z" fill="black"/>
<path d="M348.259 534.386C350.059 535.425 351.518 534.582 351.518 532.504C351.518 530.426 350.059 527.899 348.259 526.86C346.459 525.82 345 526.663 345 528.741C345 530.819 346.459 533.346 348.259 534.386Z" fill="#FFFDF9"/>
<g filter="url(#filter5_i_209_4253)">
<path d="M278 566H416.025C418.46 568.554 418.159 569.851 416.025 572H293.447L278 566Z" fill="#CFCCCC"/>
</g>
<g filter="url(#filter6_d_209_4253)">
<path d="M387.013 629.754C387.013 634.234 387.013 636.474 386.257 637.75C385.593 638.871 384.533 639.483 383.23 639.498C381.748 639.514 379.808 638.394 375.927 636.154L314.085 600.449C310.205 598.209 308.265 597.089 306.782 595.361C305.479 593.841 304.419 592.006 303.755 590.117C303 587.969 303 585.729 303 581.249V510.605C303 506.919 303 505.076 303.567 503.886C304.068 502.836 304.875 502.147 305.903 501.894C307.069 501.606 308.629 502.119 311.749 503.144L342.672 513.302C343.543 513.589 343.979 513.732 344.419 513.943C344.81 514.13 345.203 514.357 345.594 514.621C346.035 514.918 346.471 515.279 347.342 515.999L378.263 541.545C381.383 544.123 382.944 545.413 384.109 547.046C385.137 548.486 385.945 550.108 386.445 551.735C387.013 553.581 387.013 555.424 387.013 559.11V629.754Z" fill="#F7C1B3"/>
</g>
<path d="M343.259 536.386C345.059 537.425 346.518 536.582 346.518 534.504C346.518 532.426 345.059 529.899 343.259 528.86C341.459 527.82 340 528.663 340 530.741C340 532.819 341.459 535.346 343.259 536.386Z" fill="#FFFDF9"/>
<g filter="url(#filter7_d_209_4253)">
<path d="M364.624 615.791C370.911 616.127 376.362 609.774 376.799 601.601C377.236 593.428 372.493 586.529 366.206 586.193C359.919 585.857 354.468 592.21 354.031 600.383C353.594 608.557 358.337 615.455 364.624 615.791Z" fill="#D53F3F" fill-opacity="0.83"/>
<path d="M374.715 610.603C373.014 613.737 369.627 616.512 364.671 616.785C360.564 617.103 357.294 614.509 355.343 609.567C356.332 613.382 359.657 618.129 364.755 618.402C371.212 618.747 374.344 614.346 374.715 610.603Z" fill="#B8413B"/>
<path d="M364.749 613.455C370.043 613.738 374.633 608.388 375.001 601.505C375.369 594.622 371.376 588.813 366.081 588.53C360.787 588.247 356.197 593.597 355.829 600.48C355.461 607.362 359.454 613.171 364.749 613.455Z" stroke="#B8413B" stroke-width="2"/>
<path d="M364.932 610.02C368.75 610.224 372.061 606.366 372.326 601.402C372.591 596.439 369.711 592.249 365.893 592.045C362.075 591.841 358.765 595.699 358.5 600.663C358.234 605.626 361.114 609.815 364.932 610.02Z" stroke="#B8413B" stroke-width="1.5"/>
<path d="M362.544 598.496C363.096 598.525 363.512 599.13 363.473 599.847C363.435 600.564 362.957 601.121 362.405 601.091C361.854 601.062 361.438 600.457 361.476 599.74C361.515 599.023 361.993 598.466 362.544 598.496Z" fill="#94332E"/>
<path d="M362.544 598.496C363.096 598.525 363.512 599.13 363.473 599.847C363.435 600.564 362.957 601.121 362.405 601.091C361.854 601.062 361.438 600.457 361.476 599.74C361.515 599.023 361.993 598.466 362.544 598.496Z" stroke="#94332E"/>
<path d="M368.536 598.816C369.087 598.845 369.503 599.45 369.465 600.167C369.427 600.884 368.948 601.441 368.397 601.412C367.845 601.382 367.429 600.777 367.468 600.061C367.506 599.344 367.984 598.786 368.536 598.816Z" fill="#94332E"/>
<path d="M368.536 598.816C369.087 598.845 369.503 599.45 369.465 600.167C369.427 600.884 368.948 601.441 368.397 601.412C367.845 601.382 367.429 600.777 367.468 600.061C367.506 599.344 367.984 598.786 368.536 598.816Z" stroke="#94332E"/>
<path d="M361.695 603.137C362.708 606.663 367.502 606.919 368.885 603.521" stroke="#94332E" stroke-width="2" stroke-linecap="round"/>
<path d="M364.251 585.3C367.425 584.271 371.525 585.087 375.101 589.414C378.122 592.923 378.705 598.07 376.881 603.949C378.645 599.886 379.402 592.907 376.078 588C371.869 581.783 366.902 582.546 364.251 585.3Z" fill="#B8413B"/>
<path d="M353.717 604.692C352.59 601.785 352.178 598.335 354.145 593.203C355.72 588.916 358.882 585.544 362.648 585.427C359.963 584.992 355.723 586.576 353.373 591.646C350.396 598.068 351.658 602.906 353.717 604.692Z" fill="#CA433E"/>
</g>
<g filter="url(#filter8_i_209_4253)">
<path d="M207 566H345.025C347.46 568.554 347.159 569.851 345.025 572H222.446L207 566Z" fill="#CFCCCC"/>
</g>
<g filter="url(#filter9_d_209_4253)">
<path d="M338.013 630.753C338.013 635.234 338.013 637.474 337.257 638.749C336.593 639.871 335.533 640.483 334.23 640.497C332.748 640.514 330.808 639.394 326.927 637.153L265.085 601.448C261.205 599.208 259.265 598.088 257.782 596.361C256.479 594.841 255.419 593.005 254.755 591.116C254 588.969 254 586.729 254 582.248V511.605C254 507.919 254 506.076 254.567 504.885C255.068 503.836 255.875 503.147 256.903 502.893C258.069 502.606 259.629 503.118 262.749 504.144L293.672 514.302C294.543 514.588 294.979 514.731 295.419 514.942C295.81 515.13 296.203 515.357 296.594 515.621C297.035 515.918 297.471 516.278 298.342 516.998L329.263 542.545C332.383 545.123 333.944 546.412 335.109 548.045C336.137 549.486 336.945 551.107 337.445 552.735C338.013 554.58 338.013 556.423 338.013 560.109V630.753Z" fill="#F7C1B3"/>
</g>
<path d="M294.259 537.386C296.059 538.425 297.518 537.582 297.518 535.504C297.518 533.426 296.059 530.899 294.259 529.86C292.459 528.82 291 529.663 291 531.741C291 533.819 292.459 536.346 294.259 537.386Z" fill="#FFFDF9"/>
<g filter="url(#filter10_d_209_4253)">
<path d="M315.624 615.791C321.911 616.127 327.362 609.774 327.799 601.601C328.236 593.428 323.493 586.529 317.206 586.193C310.919 585.857 305.468 592.21 305.031 600.383C304.594 608.557 309.337 615.455 315.624 615.791Z" fill="#D53F3F" fill-opacity="0.83"/>
<path d="M325.715 610.603C324.014 613.737 320.627 616.512 315.671 616.785C311.564 617.103 308.294 614.509 306.343 609.567C307.332 613.382 310.657 618.129 315.755 618.402C322.212 618.747 325.344 614.346 325.715 610.603Z" fill="#B8413B"/>
<path d="M315.749 613.455C321.043 613.738 325.633 608.388 326.001 601.505C326.369 594.622 322.376 588.813 317.081 588.53C311.787 588.247 307.197 593.597 306.829 600.48C306.461 607.362 310.454 613.171 315.749 613.455Z" stroke="#B8413B" stroke-width="2"/>
<path d="M315.932 610.02C319.75 610.224 323.061 606.366 323.326 601.402C323.591 596.439 320.711 592.249 316.893 592.045C313.075 591.841 309.765 595.699 309.5 600.663C309.234 605.626 312.114 609.815 315.932 610.02Z" stroke="#B8413B" stroke-width="1.5"/>
<path d="M313.544 598.496C314.096 598.525 314.512 599.13 314.473 599.847C314.435 600.564 313.957 601.121 313.405 601.091C312.854 601.062 312.438 600.457 312.476 599.74C312.515 599.023 312.993 598.466 313.544 598.496Z" fill="#94332E"/>
<path d="M313.544 598.496C314.096 598.525 314.512 599.13 314.473 599.847C314.435 600.564 313.957 601.121 313.405 601.091C312.854 601.062 312.438 600.457 312.476 599.74C312.515 599.023 312.993 598.466 313.544 598.496Z" stroke="#94332E"/>
<path d="M319.536 598.816C320.087 598.845 320.503 599.45 320.465 600.167C320.427 600.884 319.948 601.441 319.397 601.412C318.845 601.382 318.429 600.777 318.468 600.061C318.506 599.344 318.984 598.786 319.536 598.816Z" fill="#94332E"/>
<path d="M319.536 598.816C320.087 598.845 320.503 599.45 320.465 600.167C320.427 600.884 319.948 601.441 319.397 601.412C318.845 601.382 318.429 600.777 318.468 600.061C318.506 599.344 318.984 598.786 319.536 598.816Z" stroke="#94332E"/>
<path d="M312.695 603.137C313.708 606.663 318.502 606.919 319.885 603.521" stroke="#94332E" stroke-width="2" stroke-linecap="round"/>
<path d="M315.251 585.3C318.425 584.271 322.525 585.087 326.101 589.414C329.122 592.923 329.705 598.07 327.881 603.949C329.645 599.886 330.402 592.907 327.078 588C322.869 581.783 317.902 582.546 315.251 585.3Z" fill="#B8413B"/>
<path d="M304.717 604.692C303.59 601.785 303.178 598.335 305.145 593.203C306.72 588.916 309.882 585.544 313.648 585.427C310.963 584.992 306.723 586.576 304.373 591.646C301.396 598.068 302.658 602.906 304.717 604.692Z" fill="#CA433E"/>
</g>
<g filter="url(#filter11_i_209_4253)">
<path d="M158 566H296.025C298.46 568.554 298.159 569.851 296.025 572H173.446L158 566Z" fill="#CFCCCC"/>
</g>
<g filter="url(#filter12_d_209_4253)">
<path d="M290.013 630.754C290.013 635.234 290.013 637.474 289.257 638.75C288.593 639.871 287.533 640.483 286.23 640.498C284.748 640.514 282.808 639.394 278.927 637.154L217.085 601.449C213.205 599.208 211.265 598.088 209.782 596.361C208.479 594.841 207.419 593.005 206.755 591.117C206 588.969 206 586.729 206 582.249V511.605C206 507.919 206 506.076 206.567 504.886C207.068 503.836 207.875 503.147 208.903 502.894C210.069 502.606 211.629 503.119 214.749 504.144L245.672 514.302C246.543 514.588 246.979 514.732 247.419 514.942C247.81 515.13 248.203 515.357 248.594 515.621C249.035 515.918 249.471 516.278 250.342 516.999L281.263 542.545C284.383 545.123 285.944 546.412 287.109 548.046C288.137 549.486 288.945 551.108 289.445 552.735C290.013 554.581 290.013 556.424 290.013 560.11V630.754Z" fill="#F7C1B3"/>
</g>
<path d="M248.259 536.386C250.059 537.425 251.518 536.582 251.518 534.504C251.518 532.426 250.059 529.899 248.259 528.86C246.459 527.82 245 528.663 245 530.741C245 532.819 246.459 535.346 248.259 536.386Z" fill="#FFFDF9"/>
<g filter="url(#filter13_d_209_4253)">
<path d="M290.013 630.754C290.013 635.234 290.013 637.474 289.257 638.75C288.593 639.871 287.533 640.483 286.23 640.498C284.748 640.514 282.808 639.394 278.927 637.154L217.085 601.449C213.205 599.208 211.265 598.088 209.782 596.361C208.479 594.841 207.419 593.005 206.755 591.117C206 588.969 206 586.729 206 582.249V511.605C206 507.919 206 506.076 206.567 504.886C207.068 503.836 207.875 503.147 208.903 502.894C210.069 502.606 211.629 503.119 214.749 504.144L245.672 514.302C246.543 514.588 246.979 514.732 247.419 514.942C247.81 515.13 248.203 515.357 248.594 515.621C249.035 515.918 249.471 516.278 250.342 516.999L281.263 542.545C284.383 545.123 285.944 546.412 287.109 548.046C288.137 549.486 288.945 551.108 289.445 552.735C290.013 554.581 290.013 556.424 290.013 560.11V630.754Z" fill="#F7C1B3"/>
</g>
<path d="M248.259 536.386C250.059 537.425 251.518 536.582 251.518 534.504C251.518 532.426 250.059 529.899 248.259 528.86C246.459 527.82 245 528.663 245 530.741C245 532.819 246.459 535.346 248.259 536.386Z" fill="#FFFDF9"/>
<g filter="url(#filter14_d_209_4253)">
<path d="M267.624 615.791C273.911 616.127 279.362 609.774 279.799 601.601C280.236 593.428 275.493 586.529 269.206 586.193C262.919 585.857 257.468 592.21 257.031 600.383C256.594 608.557 261.337 615.455 267.624 615.791Z" fill="#D53F3F" fill-opacity="0.83"/>
<path d="M277.715 610.603C276.014 613.737 272.627 616.512 267.671 616.785C263.564 617.103 260.294 614.509 258.343 609.567C259.332 613.382 262.657 618.129 267.755 618.402C274.212 618.747 277.344 614.346 277.715 610.603Z" fill="#B8413B"/>
<path d="M267.749 613.455C273.043 613.738 277.633 608.388 278.001 601.505C278.369 594.622 274.376 588.813 269.081 588.53C263.787 588.247 259.197 593.597 258.829 600.48C258.461 607.362 262.454 613.171 267.749 613.455Z" stroke="#B8413B" stroke-width="2"/>
<path d="M267.932 610.02C271.75 610.224 275.061 606.366 275.326 601.402C275.591 596.439 272.711 592.249 268.893 592.045C265.075 591.841 261.765 595.699 261.5 600.663C261.234 605.626 264.114 609.815 267.932 610.02Z" stroke="#B8413B" stroke-width="1.5"/>
<path d="M265.544 598.496C266.096 598.525 266.512 599.13 266.473 599.847C266.435 600.564 265.957 601.121 265.405 601.091C264.854 601.062 264.438 600.457 264.476 599.74C264.515 599.023 264.993 598.466 265.544 598.496Z" fill="#94332E"/>
<path d="M265.544 598.496C266.096 598.525 266.512 599.13 266.473 599.847C266.435 600.564 265.957 601.121 265.405 601.091C264.854 601.062 264.438 600.457 264.476 599.74C264.515 599.023 264.993 598.466 265.544 598.496Z" stroke="#94332E"/>
<path d="M271.536 598.816C272.087 598.845 272.503 599.45 272.465 600.167C272.427 600.884 271.948 601.441 271.397 601.412C270.845 601.382 270.429 600.777 270.468 600.061C270.506 599.344 270.984 598.786 271.536 598.816Z" fill="#94332E"/>
<path d="M271.536 598.816C272.087 598.845 272.503 599.45 272.465 600.167C272.427 600.884 271.948 601.441 271.397 601.412C270.845 601.382 270.429 600.777 270.468 600.061C270.506 599.344 270.984 598.786 271.536 598.816Z" stroke="#94332E"/>
<path d="M264.695 603.137C265.708 606.663 270.502 606.919 271.885 603.521" stroke="#94332E" stroke-width="2" stroke-linecap="round"/>
<path d="M267.251 585.3C270.425 584.271 274.525 585.087 278.101 589.414C281.122 592.923 281.705 598.07 279.881 603.949C281.645 599.886 282.402 592.907 279.078 588C274.869 581.783 269.902 582.546 267.251 585.3Z" fill="#B8413B"/>
<path d="M256.717 604.692C255.59 601.785 255.178 598.335 257.145 593.203C258.72 588.916 261.882 585.544 265.648 585.427C262.963 584.992 258.723 586.576 256.373 591.646C253.396 598.068 254.658 602.906 256.717 604.692Z" fill="#CA433E"/>
</g>
<g filter="url(#filter15_i_209_4253)">
<path d="M112 566H250.025C252.46 568.554 252.159 569.851 250.025 572H127.446L112 566Z" fill="#CFCCCC"/>
</g>
<g filter="url(#filter16_d_209_4253)">
<path d="M233.013 629.754C233.013 634.234 233.013 636.474 232.257 637.75C231.593 638.871 230.533 639.483 229.23 639.498C227.748 639.514 225.808 638.394 221.927 636.154L160.085 600.449C156.205 598.208 154.265 597.088 152.782 595.361C151.479 593.841 150.419 592.005 149.755 590.117C149 587.969 149 585.729 149 581.249V510.605C149 506.919 149 505.076 149.567 503.886C150.068 502.836 150.875 502.147 151.903 501.894C153.069 501.606 154.629 502.119 157.749 503.144L188.672 513.302C189.543 513.588 189.979 513.732 190.419 513.942C190.81 514.13 191.203 514.357 191.594 514.621C192.035 514.918 192.471 515.278 193.342 515.999L224.263 541.545C227.383 544.123 228.944 545.412 230.109 547.046C231.137 548.486 231.945 550.108 232.445 551.735C233.013 553.581 233.013 555.424 233.013 559.11V629.754Z" fill="#F7C1B3"/>
</g>
<g filter="url(#filter17_d_209_4253)">
<path d="M210.624 615.791C216.911 616.127 222.362 609.774 222.799 601.601C223.236 593.428 218.493 586.529 212.206 586.193C205.919 585.857 200.468 592.21 200.031 600.383C199.594 608.557 204.337 615.455 210.624 615.791Z" fill="#D53F3F" fill-opacity="0.83"/>
<path d="M220.715 610.603C219.014 613.737 215.627 616.512 210.671 616.785C206.564 617.103 203.294 614.509 201.343 609.567C202.332 613.382 205.657 618.129 210.755 618.402C217.212 618.747 220.344 614.346 220.715 610.603Z" fill="#B8413B"/>
<path d="M210.749 613.455C216.043 613.738 220.633 608.388 221.001 601.505C221.369 594.622 217.376 588.813 212.081 588.53C206.787 588.247 202.197 593.597 201.829 600.48C201.461 607.362 205.454 613.171 210.749 613.455Z" stroke="#B8413B" stroke-width="2"/>
<path d="M210.932 610.02C214.75 610.224 218.061 606.366 218.326 601.402C218.591 596.439 215.711 592.249 211.893 592.045C208.075 591.841 204.765 595.699 204.5 600.663C204.234 605.626 207.114 609.815 210.932 610.02Z" stroke="#B8413B" stroke-width="1.5"/>
<path d="M208.544 598.496C209.096 598.525 209.512 599.13 209.473 599.847C209.435 600.564 208.957 601.121 208.405 601.091C207.854 601.062 207.438 600.457 207.476 599.74C207.515 599.023 207.993 598.466 208.544 598.496Z" fill="#94332E"/>
<path d="M208.544 598.496C209.096 598.525 209.512 599.13 209.473 599.847C209.435 600.564 208.957 601.121 208.405 601.091C207.854 601.062 207.438 600.457 207.476 599.74C207.515 599.023 207.993 598.466 208.544 598.496Z" stroke="#94332E"/>
<path d="M214.536 598.816C215.087 598.845 215.503 599.45 215.465 600.167C215.427 600.884 214.948 601.441 214.397 601.412C213.845 601.382 213.429 600.777 213.468 600.061C213.506 599.344 213.984 598.786 214.536 598.816Z" fill="#94332E"/>
<path d="M214.536 598.816C215.087 598.845 215.503 599.45 215.465 600.167C215.427 600.884 214.948 601.441 214.397 601.412C213.845 601.382 213.429 600.777 213.468 600.061C213.506 599.344 213.984 598.786 214.536 598.816Z" stroke="#94332E"/>
<path d="M207.695 603.137C208.708 606.663 213.502 606.919 214.885 603.521" stroke="#94332E" stroke-width="2" stroke-linecap="round"/>
<path d="M210.251 585.3C213.425 584.271 217.525 585.087 221.101 589.414C224.122 592.923 224.705 598.07 222.881 603.949C224.645 599.886 225.402 592.907 222.078 588C217.869 581.783 212.902 582.546 210.251 585.3Z" fill="#B8413B"/>
<path d="M199.717 604.692C198.59 601.785 198.178 598.335 200.145 593.203C201.72 588.916 204.882 585.544 208.648 585.427C205.963 584.992 201.723 586.576 199.373 591.646C196.396 598.068 197.658 602.906 199.717 604.692Z" fill="#CA433E"/>
</g>
<path d="M191.259 535.386C193.059 536.425 194.518 535.582 194.518 533.504C194.518 531.426 193.059 528.899 191.259 527.86C189.459 526.82 188 527.663 188 529.741C188 531.819 189.459 534.346 191.259 535.386Z" fill="#FFFDF9"/>
<g filter="url(#filter18_i_209_4253)">
<path d="M103 566H193.87C195.474 568.554 195.275 569.851 193.87 572H113.169L103 566Z" fill="#CFCCCC"/>
</g>
<g filter="url(#filter19_d_209_4253)">
<path d="M188.013 629.754C188.013 634.234 188.013 636.474 187.257 637.75C186.593 638.871 185.533 639.483 184.23 639.498C182.748 639.514 180.808 638.394 176.927 636.154L115.085 600.449C111.205 598.208 109.265 597.088 107.782 595.361C106.479 593.841 105.419 592.005 104.755 590.117C104 587.969 104 585.729 104 581.249V510.605C104 506.919 104 505.076 104.567 503.886C105.068 502.836 105.875 502.147 106.903 501.894C108.069 501.606 109.629 502.119 112.749 503.144L143.672 513.302C144.543 513.588 144.979 513.732 145.419 513.942C145.81 514.13 146.203 514.357 146.594 514.621C147.035 514.918 147.471 515.278 148.342 515.999L179.263 541.545C182.383 544.123 183.944 545.412 185.109 547.046C186.137 548.486 186.945 550.108 187.445 551.735C188.013 553.581 188.013 555.424 188.013 559.11V629.754Z" fill="#F7C1B3"/>
</g>
<path d="M146.259 535.386C148.059 536.425 149.518 535.582 149.518 533.504C149.518 531.426 148.059 528.899 146.259 527.86C144.459 526.82 143 527.663 143 529.741C143 531.819 144.459 534.346 146.259 535.386Z" fill="#FFFDF9"/>
<g filter="url(#filter20_d_209_4253)">
<path d="M165.624 615.791C171.911 616.127 177.362 609.774 177.799 601.601C178.236 593.428 173.493 586.529 167.206 586.193C160.919 585.857 155.468 592.21 155.031 600.383C154.594 608.557 159.337 615.455 165.624 615.791Z" fill="#D53F3F" fill-opacity="0.83"/>
<path d="M175.715 610.603C174.014 613.737 170.627 616.512 165.671 616.785C161.564 617.103 158.294 614.509 156.343 609.567C157.332 613.382 160.657 618.129 165.755 618.402C172.212 618.747 175.344 614.346 175.715 610.603Z" fill="#B8413B"/>
<path d="M165.749 613.455C171.043 613.738 175.633 608.388 176.001 601.505C176.369 594.622 172.376 588.813 167.081 588.53C161.787 588.247 157.197 593.597 156.829 600.48C156.461 607.362 160.454 613.171 165.749 613.455Z" stroke="#B8413B" stroke-width="2"/>
<path d="M165.932 610.02C169.75 610.224 173.061 606.366 173.326 601.402C173.591 596.439 170.711 592.249 166.893 592.045C163.075 591.841 159.765 595.699 159.5 600.663C159.234 605.626 162.114 609.815 165.932 610.02Z" stroke="#B8413B" stroke-width="1.5"/>
<path d="M163.544 598.496C164.096 598.525 164.512 599.13 164.473 599.847C164.435 600.564 163.957 601.121 163.405 601.091C162.854 601.062 162.438 600.457 162.476 599.74C162.515 599.023 162.993 598.466 163.544 598.496Z" fill="#94332E"/>
<path d="M163.544 598.496C164.096 598.525 164.512 599.13 164.473 599.847C164.435 600.564 163.957 601.121 163.405 601.091C162.854 601.062 162.438 600.457 162.476 599.74C162.515 599.023 162.993 598.466 163.544 598.496Z" stroke="#94332E"/>
<path d="M169.536 598.816C170.087 598.845 170.503 599.45 170.465 600.167C170.427 600.884 169.948 601.441 169.397 601.412C168.845 601.382 168.429 600.777 168.468 600.061C168.506 599.344 168.984 598.786 169.536 598.816Z" fill="#94332E"/>
<path d="M169.536 598.816C170.087 598.845 170.503 599.45 170.465 600.167C170.427 600.884 169.948 601.441 169.397 601.412C168.845 601.382 168.429 600.777 168.468 600.061C168.506 599.344 168.984 598.786 169.536 598.816Z" stroke="#94332E"/>
<path d="M162.695 603.137C163.708 606.663 168.502 606.919 169.885 603.521" stroke="#94332E" stroke-width="2" stroke-linecap="round"/>
<path d="M165.251 585.3C168.425 584.271 172.525 585.087 176.101 589.414C179.122 592.923 179.705 598.07 177.881 603.949C179.645 599.886 180.402 592.907 177.078 588C172.869 581.783 167.902 582.546 165.251 585.3Z" fill="#B8413B"/>
<path d="M154.717 604.692C153.59 601.785 153.178 598.335 155.145 593.203C156.72 588.916 159.882 585.544 163.648 585.427C160.963 584.992 156.723 586.576 154.373 591.646C151.396 598.068 152.658 602.906 154.717 604.692Z" fill="#CA433E"/>
</g>
<path d="M27.4996 277.5H71.4996" stroke="#FDC63C" stroke-opacity="0.46" stroke-width="5" stroke-linecap="round"/>
<path d="M27.4996 483.5H71.4996" stroke="#FDC63C" stroke-opacity="0.46" stroke-width="5" stroke-linecap="round"/>
<g filter="url(#filter21_i_209_4253)">
<path d="M35.9996 566H151.87C153.473 568.554 153.275 569.851 151.87 572H47.4996L35.9996 566Z" fill="#CFCCCC"/>
</g>
<path d="M59.9996 256C59.9996 248.268 53.7316 242 45.9996 242C38.2676 242 31.9996 248.268 31.9996 256C31.9996 263.732 38.2676 270 45.9996 270C53.7316 270 59.9996 263.732 59.9996 256Z" fill="#FFEDD5"/>
<path d="M43.9996 248C41.2382 248 38.9996 250.239 38.9996 253V265H40.9996V258H45.5854L47.5854 260H48.9996C51.7611 260 53.9996 257.761 53.9996 255C53.9996 252.239 51.7611 250 48.9996 250H48.4138L46.4138 248H43.9996Z" fill="#EF8834"/>
<path d="M63.9996 456C63.9996 447.716 57.2839 441 48.9996 441C40.7153 441 33.9996 447.716 33.9996 456C33.9996 464.284 40.7153 471 48.9996 471C57.2839 471 63.9996 464.284 63.9996 456Z" fill="#F0F2E8"/>
<path fill-rule="evenodd" clip-rule="evenodd" d="M51.1717 446.765C50.2068 445.093 47.7925 445.093 46.8276 446.765C46.2602 447.749 45.1025 448.229 44.0057 447.934C42.1405 447.434 40.4334 449.141 40.934 451.006C41.2283 452.103 40.7488 453.261 39.7651 453.828C38.0923 454.793 38.0923 457.207 39.7651 458.172C40.7488 458.739 41.2283 459.897 40.934 460.994C40.4334 462.859 42.1405 464.566 44.0057 464.066C45.1025 463.771 46.2602 464.251 46.8276 465.235C47.7925 466.907 50.2068 466.907 51.1717 465.235C51.7391 464.251 52.8968 463.771 53.9936 464.066C55.8587 464.566 57.5659 462.859 57.0653 460.994C56.771 459.897 57.2505 458.739 58.2342 458.172C59.907 457.207 59.907 454.793 58.2342 453.828C57.2505 453.261 56.771 452.103 57.0653 451.006C57.5659 449.141 55.8587 447.434 53.9936 447.934C52.8968 448.229 51.7391 447.749 51.1717 446.765ZM49.6886 458.976L54.7237 453.69L53.2756 452.31L48.2405 457.596C48.002 457.846 47.8401 457.918 47.5709 457.974C47.3242 458.026 47.0679 458 46.8322 457.897C46.5958 457.795 46.3859 457.617 46.2347 457.379C46.0832 457.141 45.9996 456.857 45.9996 456.562H43.9996C43.9996 457.231 44.1885 457.889 44.5475 458.453C44.9067 459.018 45.4222 459.465 46.0346 459.731C46.6477 459.998 47.3254 460.069 47.9797 459.932C48.6117 459.8 49.1472 459.544 49.6886 458.976Z" fill="#9BB167"/>
<path d="M305 36C305.552 36 306 35.5523 306 35C306 34.4477 305.552 34 305 34C304.448 34 304 34.4477 304 35C304 35.5523 304.448 36 305 36Z" fill="#D9D9D9"/>
</g>
<defs>
<filter id="filter0_d_209_4253" x="285.181" y="105.286" width="77.0104" height="28.2185" filterUnits="userSpaceOnUse" color-interpolation-filters="sRGB">
<feFlood flood-opacity="0" result="BackgroundImageFix"/>
<feColorMatrix in="SourceAlpha" type="matrix" values="0 0 0 0 0 0 0 0 0 0 0 0 0 0 0 0 0 0 127 0" result="hardAlpha"/>
<feOffset dy="4"/>
<feGaussianBlur stdDeviation="2"/>
<feComposite in2="hardAlpha" operator="out"/>
<feColorMatrix type="matrix" values="0 0 0 0 0 0 0 0 0 0 0 0 0 0 0 0 0 0 0.25 0"/>
<feBlend mode="normal" in2="BackgroundImageFix" result="effect1_dropShadow_209_4253"/>
<feBlend mode="normal" in="SourceGraphic" in2="effect1_dropShadow_209_4253" result="shape"/>
</filter>
<filter id="filter1_d_209_4253" x="283.936" y="15.6826" width="72.7443" height="94.0693" filterUnits="userSpaceOnUse" color-interpolation-filters="sRGB">
<feFlood flood-opacity="0" result="BackgroundImageFix"/>
<feColorMatrix in="SourceAlpha" type="matrix" values="0 0 0 0 0 0 0 0 0 0 0 0 0 0 0 0 0 0 127 0" result="hardAlpha"/>
<feOffset dy="4"/>
<feGaussianBlur stdDeviation="2"/>
<feComposite in2="hardAlpha" operator="out"/>
<feColorMatrix type="matrix" values="0 0 0 0 0 0 0 0 0 0 0 0 0 0 0 0 0 0 0.25 0"/>
<feBlend mode="normal" in2="BackgroundImageFix" result="effect1_dropShadow_209_4253"/>
<feBlend mode="normal" in="SourceGraphic" in2="effect1_dropShadow_209_4253" result="shape"/>
</filter>
<filter id="filter2_d_209_4253" x="258.29" y="279.846" width="152.148" height="156.964" filterUnits="userSpaceOnUse" color-interpolation-filters="sRGB">
<feFlood flood-opacity="0" result="BackgroundImageFix"/>
<feColorMatrix in="SourceAlpha" type="matrix" values="0 0 0 0 0 0 0 0 0 0 0 0 0 0 0 0 0 0 127 0" result="hardAlpha"/>
<feOffset dx="8" dy="14"/>
<feGaussianBlur stdDeviation="10"/>
<feComposite in2="hardAlpha" operator="out"/>
<feColorMatrix type="matrix" values="0 0 0 0 0 0 0 0 0 0 0 0 0 0 0 0 0 0 0.12 0"/>
<feBlend mode="normal" in2="BackgroundImageFix" result="effect1_dropShadow_209_4253"/>
<feBlend mode="normal" in="SourceGraphic" in2="effect1_dropShadow_209_4253" result="shape"/>
</filter>
<filter id="filter3_d_209_4253" x="146" y="277" width="151" height="159.099" filterUnits="userSpaceOnUse" color-interpolation-filters="sRGB">
<feFlood flood-opacity="0" result="BackgroundImageFix"/>
<feColorMatrix in="SourceAlpha" type="matrix" values="0 0 0 0 0 0 0 0 0 0 0 0 0 0 0 0 0 0 127 0" result="hardAlpha"/>
<feOffset dx="8" dy="14"/>
<feGaussianBlur stdDeviation="10"/>
<feComposite in2="hardAlpha" operator="out"/>
<feColorMatrix type="matrix" values="0 0 0 0 0 0 0 0 0 0 0 0 0 0 0 0 0 0 0.12 0"/>
<feBlend mode="normal" in2="BackgroundImageFix" result="effect1_dropShadow_209_4253"/>
<feBlend mode="normal" in="SourceGraphic" in2="effect1_dropShadow_209_4253" result="shape"/>
</filter>
<filter id="filter4_d_209_4253" x="32.1138" y="277.141" width="156.462" height="158.287" filterUnits="userSpaceOnUse" color-interpolation-filters="sRGB">
<feFlood flood-opacity="0" result="BackgroundImageFix"/>
<feColorMatrix in="SourceAlpha" type="matrix" values="0 0 0 0 0 0 0 0 0 0 0 0 0 0 0 0 0 0 127 0" result="hardAlpha"/>
<feOffset dx="8" dy="14"/>
<feGaussianBlur stdDeviation="10"/>
<feComposite in2="hardAlpha" operator="out"/>
<feColorMatrix type="matrix" values="0 0 0 0 0 0 0 0 0 0 0 0 0 0 0 0 0 0 0.12 0"/>
<feBlend mode="normal" in2="BackgroundImageFix" result="effect1_dropShadow_209_4253"/>
<feBlend mode="normal" in="SourceGraphic" in2="effect1_dropShadow_209_4253" result="shape"/>
</filter>
<filter id="filter5_i_209_4253" x="278" y="564" width="139.74" height="8" filterUnits="userSpaceOnUse" color-interpolation-filters="sRGB">
<feFlood flood-opacity="0" result="BackgroundImageFix"/>
<feBlend mode="normal" in="SourceGraphic" in2="BackgroundImageFix" result="shape"/>
<feColorMatrix in="SourceAlpha" type="matrix" values="0 0 0 0 0 0 0 0 0 0 0 0 0 0 0 0 0 0 127 0" result="hardAlpha"/>
<feOffset dy="-2"/>
<feGaussianBlur stdDeviation="2"/>
<feComposite in2="hardAlpha" operator="arithmetic" k2="-1" k3="1"/>
<feColorMatrix type="matrix" values="0 0 0 0 0 0 0 0 0 0 0 0 0 0 0 0 0 0 0.25 0"/>
<feBlend mode="normal" in2="shape" result="effect1_innerShadow_209_4253"/>
</filter>
<filter id="filter6_d_209_4253" x="291" y="495.814" width="124.013" height="177.684" filterUnits="userSpaceOnUse" color-interpolation-filters="sRGB">
<feFlood flood-opacity="0" result="BackgroundImageFix"/>
<feColorMatrix in="SourceAlpha" type="matrix" values="0 0 0 0 0 0 0 0 0 0 0 0 0 0 0 0 0 0 127 0" result="hardAlpha"/>
<feOffset dx="8" dy="14"/>
<feGaussianBlur stdDeviation="10"/>
<feComposite in2="hardAlpha" operator="out"/>
<feColorMatrix type="matrix" values="0 0 0 0 0 0 0 0 0 0 0 0 0 0 0 0 0 0 0.12 0"/>
<feBlend mode="normal" in2="BackgroundImageFix" result="effect1_dropShadow_209_4253"/>
<feBlend mode="normal" in="SourceGraphic" in2="effect1_dropShadow_209_4253" result="shape"/>
</filter>
<filter id="filter7_d_209_4253" x="347.61" y="583.246" width="34.7774" height="43.1752" filterUnits="userSpaceOnUse" color-interpolation-filters="sRGB">
<feFlood flood-opacity="0" result="BackgroundImageFix"/>
<feColorMatrix in="SourceAlpha" type="matrix" values="0 0 0 0 0 0 0 0 0 0 0 0 0 0 0 0 0 0 127 0" result="hardAlpha"/>
<feOffset dy="4"/>
<feGaussianBlur stdDeviation="2"/>
<feComposite in2="hardAlpha" operator="out"/>
<feColorMatrix type="matrix" values="0 0 0 0 0 0 0 0 0 0 0 0 0 0 0 0 0 0 0.25 0"/>
<feBlend mode="normal" in2="BackgroundImageFix" result="effect1_dropShadow_209_4253"/>
<feBlend mode="normal" in="SourceGraphic" in2="effect1_dropShadow_209_4253" result="shape"/>
</filter>
<filter id="filter8_i_209_4253" x="207" y="564" width="139.74" height="8" filterUnits="userSpaceOnUse" color-interpolation-filters="sRGB">
<feFlood flood-opacity="0" result="BackgroundImageFix"/>
<feBlend mode="normal" in="SourceGraphic" in2="BackgroundImageFix" result="shape"/>
<feColorMatrix in="SourceAlpha" type="matrix" values="0 0 0 0 0 0 0 0 0 0 0 0 0 0 0 0 0 0 127 0" result="hardAlpha"/>
<feOffset dy="-2"/>
<feGaussianBlur stdDeviation="2"/>
<feComposite in2="hardAlpha" operator="arithmetic" k2="-1" k3="1"/>
<feColorMatrix type="matrix" values="0 0 0 0 0 0 0 0 0 0 0 0 0 0 0 0 0 0 0.25 0"/>
<feBlend mode="normal" in2="shape" result="effect1_innerShadow_209_4253"/>
</filter>
<filter id="filter9_d_209_4253" x="242" y="496.814" width="124.013" height="177.683" filterUnits="userSpaceOnUse" color-interpolation-filters="sRGB">
<feFlood flood-opacity="0" result="BackgroundImageFix"/>
<feColorMatrix in="SourceAlpha" type="matrix" values="0 0 0 0 0 0 0 0 0 0 0 0 0 0 0 0 0 0 127 0" result="hardAlpha"/>
<feOffset dx="8" dy="14"/>
<feGaussianBlur stdDeviation="10"/>
<feComposite in2="hardAlpha" operator="out"/>
<feColorMatrix type="matrix" values="0 0 0 0 0 0 0 0 0 0 0 0 0 0 0 0 0 0 0.12 0"/>
<feBlend mode="normal" in2="BackgroundImageFix" result="effect1_dropShadow_209_4253"/>
<feBlend mode="normal" in="SourceGraphic" in2="effect1_dropShadow_209_4253" result="shape"/>
</filter>
<filter id="filter10_d_209_4253" x="298.61" y="583.246" width="34.7774" height="43.1752" filterUnits="userSpaceOnUse" color-interpolation-filters="sRGB">
<feFlood flood-opacity="0" result="BackgroundImageFix"/>
<feColorMatrix in="SourceAlpha" type="matrix" values="0 0 0 0 0 0 0 0 0 0 0 0 0 0 0 0 0 0 127 0" result="hardAlpha"/>
<feOffset dy="4"/>
<feGaussianBlur stdDeviation="2"/>
<feComposite in2="hardAlpha" operator="out"/>
<feColorMatrix type="matrix" values="0 0 0 0 0 0 0 0 0 0 0 0 0 0 0 0 0 0 0.25 0"/>
<feBlend mode="normal" in2="BackgroundImageFix" result="effect1_dropShadow_209_4253"/>
<feBlend mode="normal" in="SourceGraphic" in2="effect1_dropShadow_209_4253" result="shape"/>
</filter>
<filter id="filter11_i_209_4253" x="158" y="564" width="139.74" height="8" filterUnits="userSpaceOnUse" color-interpolation-filters="sRGB">
<feFlood flood-opacity="0" result="BackgroundImageFix"/>
<feBlend mode="normal" in="SourceGraphic" in2="BackgroundImageFix" result="shape"/>
<feColorMatrix in="SourceAlpha" type="matrix" values="0 0 0 0 0 0 0 0 0 0 0 0 0 0 0 0 0 0 127 0" result="hardAlpha"/>
<feOffset dy="-2"/>
<feGaussianBlur stdDeviation="2"/>
<feComposite in2="hardAlpha" operator="arithmetic" k2="-1" k3="1"/>
<feColorMatrix type="matrix" values="0 0 0 0 0 0 0 0 0 0 0 0 0 0 0 0 0 0 0.25 0"/>
<feBlend mode="normal" in2="shape" result="effect1_innerShadow_209_4253"/>
</filter>
<filter id="filter12_d_209_4253" x="194" y="496.814" width="124.013" height="177.684" filterUnits="userSpaceOnUse" color-interpolation-filters="sRGB">
<feFlood flood-opacity="0" result="BackgroundImageFix"/>
<feColorMatrix in="SourceAlpha" type="matrix" values="0 0 0 0 0 0 0 0 0 0 0 0 0 0 0 0 0 0 127 0" result="hardAlpha"/>
<feOffset dx="8" dy="14"/>
<feGaussianBlur stdDeviation="10"/>
<feComposite in2="hardAlpha" operator="out"/>
<feColorMatrix type="matrix" values="0 0 0 0 0 0 0 0 0 0 0 0 0 0 0 0 0 0 0.12 0"/>
<feBlend mode="normal" in2="BackgroundImageFix" result="effect1_dropShadow_209_4253"/>
<feBlend mode="normal" in="SourceGraphic" in2="effect1_dropShadow_209_4253" result="shape"/>
</filter>
<filter id="filter13_d_209_4253" x="194" y="496.814" width="124.013" height="177.684" filterUnits="userSpaceOnUse" color-interpolation-filters="sRGB">
<feFlood flood-opacity="0" result="BackgroundImageFix"/>
<feColorMatrix in="SourceAlpha" type="matrix" values="0 0 0 0 0 0 0 0 0 0 0 0 0 0 0 0 0 0 127 0" result="hardAlpha"/>
<feOffset dx="8" dy="14"/>
<feGaussianBlur stdDeviation="10"/>
<feComposite in2="hardAlpha" operator="out"/>
<feColorMatrix type="matrix" values="0 0 0 0 0 0 0 0 0 0 0 0 0 0 0 0 0 0 0.12 0"/>
<feBlend mode="normal" in2="BackgroundImageFix" result="effect1_dropShadow_209_4253"/>
<feBlend mode="normal" in="SourceGraphic" in2="effect1_dropShadow_209_4253" result="shape"/>
</filter>
<filter id="filter14_d_209_4253" x="250.61" y="583.246" width="34.7775" height="43.1752" filterUnits="userSpaceOnUse" color-interpolation-filters="sRGB">
<feFlood flood-opacity="0" result="BackgroundImageFix"/>
<feColorMatrix in="SourceAlpha" type="matrix" values="0 0 0 0 0 0 0 0 0 0 0 0 0 0 0 0 0 0 127 0" result="hardAlpha"/>
<feOffset dy="4"/>
<feGaussianBlur stdDeviation="2"/>
<feComposite in2="hardAlpha" operator="out"/>
<feColorMatrix type="matrix" values="0 0 0 0 0 0 0 0 0 0 0 0 0 0 0 0 0 0 0.25 0"/>
<feBlend mode="normal" in2="BackgroundImageFix" result="effect1_dropShadow_209_4253"/>
<feBlend mode="normal" in="SourceGraphic" in2="effect1_dropShadow_209_4253" result="shape"/>
</filter>
<filter id="filter15_i_209_4253" x="112" y="564" width="139.74" height="8" filterUnits="userSpaceOnUse" color-interpolation-filters="sRGB">
<feFlood flood-opacity="0" result="BackgroundImageFix"/>
<feBlend mode="normal" in="SourceGraphic" in2="BackgroundImageFix" result="shape"/>
<feColorMatrix in="SourceAlpha" type="matrix" values="0 0 0 0 0 0 0 0 0 0 0 0 0 0 0 0 0 0 127 0" result="hardAlpha"/>
<feOffset dy="-2"/>
<feGaussianBlur stdDeviation="2"/>
<feComposite in2="hardAlpha" operator="arithmetic" k2="-1" k3="1"/>
<feColorMatrix type="matrix" values="0 0 0 0 0 0 0 0 0 0 0 0 0 0 0 0 0 0 0.25 0"/>
<feBlend mode="normal" in2="shape" result="effect1_innerShadow_209_4253"/>
</filter>
<filter id="filter16_d_209_4253" x="137" y="495.814" width="124.013" height="177.684" filterUnits="userSpaceOnUse" color-interpolation-filters="sRGB">
<feFlood flood-opacity="0" result="BackgroundImageFix"/>
<feColorMatrix in="SourceAlpha" type="matrix" values="0 0 0 0 0 0 0 0 0 0 0 0 0 0 0 0 0 0 127 0" result="hardAlpha"/>
<feOffset dx="8" dy="14"/>
<feGaussianBlur stdDeviation="10"/>
<feComposite in2="hardAlpha" operator="out"/>
<feColorMatrix type="matrix" values="0 0 0 0 0 0 0 0 0 0 0 0 0 0 0 0 0 0 0.12 0"/>
<feBlend mode="normal" in2="BackgroundImageFix" result="effect1_dropShadow_209_4253"/>
<feBlend mode="normal" in="SourceGraphic" in2="effect1_dropShadow_209_4253" result="shape"/>
</filter>
<filter id="filter17_d_209_4253" x="193.61" y="583.246" width="34.7775" height="43.1752" filterUnits="userSpaceOnUse" color-interpolation-filters="sRGB">
<feFlood flood-opacity="0" result="BackgroundImageFix"/>
<feColorMatrix in="SourceAlpha" type="matrix" values="0 0 0 0 0 0 0 0 0 0 0 0 0 0 0 0 0 0 127 0" result="hardAlpha"/>
<feOffset dy="4"/>
<feGaussianBlur stdDeviation="2"/>
<feComposite in2="hardAlpha" operator="out"/>
<feColorMatrix type="matrix" values="0 0 0 0 0 0 0 0 0 0 0 0 0 0 0 0 0 0 0.25 0"/>
<feBlend mode="normal" in2="BackgroundImageFix" result="effect1_dropShadow_209_4253"/>
<feBlend mode="normal" in="SourceGraphic" in2="effect1_dropShadow_209_4253" result="shape"/>
</filter>
<filter id="filter18_i_209_4253" x="103" y="564" width="91.9996" height="8" filterUnits="userSpaceOnUse" color-interpolation-filters="sRGB">
<feFlood flood-opacity="0" result="BackgroundImageFix"/>
<feBlend mode="normal" in="SourceGraphic" in2="BackgroundImageFix" result="shape"/>
<feColorMatrix in="SourceAlpha" type="matrix" values="0 0 0 0 0 0 0 0 0 0 0 0 0 0 0 0 0 0 127 0" result="hardAlpha"/>
<feOffset dy="-2"/>
<feGaussianBlur stdDeviation="2"/>
<feComposite in2="hardAlpha" operator="arithmetic" k2="-1" k3="1"/>
<feColorMatrix type="matrix" values="0 0 0 0 0 0 0 0 0 0 0 0 0 0 0 0 0 0 0.25 0"/>
<feBlend mode="normal" in2="shape" result="effect1_innerShadow_209_4253"/>
</filter>
<filter id="filter19_d_209_4253" x="92" y="495.814" width="124.013" height="177.684" filterUnits="userSpaceOnUse" color-interpolation-filters="sRGB">
<feFlood flood-opacity="0" result="BackgroundImageFix"/>
<feColorMatrix in="SourceAlpha" type="matrix" values="0 0 0 0 0 0 0 0 0 0 0 0 0 0 0 0 0 0 127 0" result="hardAlpha"/>
<feOffset dx="8" dy="14"/>
<feGaussianBlur stdDeviation="10"/>
<feComposite in2="hardAlpha" operator="out"/>
<feColorMatrix type="matrix" values="0 0 0 0 0 0 0 0 0 0 0 0 0 0 0 0 0 0 0.12 0"/>
<feBlend mode="normal" in2="BackgroundImageFix" result="effect1_dropShadow_209_4253"/>
<feBlend mode="normal" in="SourceGraphic" in2="effect1_dropShadow_209_4253" result="shape"/>
</filter>
<filter id="filter20_d_209_4253" x="148.61" y="583.246" width="34.7775" height="43.1752" filterUnits="userSpaceOnUse" color-interpolation-filters="sRGB">
<feFlood flood-opacity="0" result="BackgroundImageFix"/>
<feColorMatrix in="SourceAlpha" type="matrix" values="0 0 0 0 0 0 0 0 0 0 0 0 0 0 0 0 0 0 127 0" result="hardAlpha"/>
<feOffset dy="4"/>
<feGaussianBlur stdDeviation="2"/>
<feComposite in2="hardAlpha" operator="out"/>
<feColorMatrix type="matrix" values="0 0 0 0 0 0 0 0 0 0 0 0 0 0 0 0 0 0 0.25 0"/>
<feBlend mode="normal" in2="BackgroundImageFix" result="effect1_dropShadow_209_4253"/>
<feBlend mode="normal" in="SourceGraphic" in2="effect1_dropShadow_209_4253" result="shape"/>
</filter>
<filter id="filter21_i_209_4253" x="35.9996" y="564" width="117" height="8" filterUnits="userSpaceOnUse" color-interpolation-filters="sRGB">
<feFlood flood-opacity="0" result="BackgroundImageFix"/>
<feBlend mode="normal" in="SourceGraphic" in2="BackgroundImageFix" result="shape"/>
<feColorMatrix in="SourceAlpha" type="matrix" values="0 0 0 0 0 0 0 0 0 0 0 0 0 0 0 0 0 0 127 0" result="hardAlpha"/>
<feOffset dy="-2"/>
<feGaussianBlur stdDeviation="2"/>
<feComposite in2="hardAlpha" operator="arithmetic" k2="-1" k3="1"/>
<feColorMatrix type="matrix" values="0 0 0 0 0 0 0 0 0 0 0 0 0 0 0 0 0 0 0.25 0"/>
<feBlend mode="normal" in2="shape" result="effect1_innerShadow_209_4253"/>
</filter>
<linearGradient id="paint0_linear_209_4253" x1="0.00495807" y1="297.941" x2="405.05" y2="297.941" gradientUnits="userSpaceOnUse">
<stop stop-color="#E67A7A"/>
</linearGradient>
<clipPath id="clip0_209_4253">
<rect width="418" height="813" fill="white"/>
</clipPath>
</defs>
</svg>
